# xmcd
#
# Track frame offsets:
#	180
#	13345
#	36517
#	50170
#	65917
#	83542
#	101767
#	115347
#	137692
#	164020
#
# Disc length: 2436 seconds
#
# Revision: 2
# Processed by: cddbd v1.5.2PL0 Copyright (c) Steve Scherf et al.
# Submitted via: audiograbber 1.83.01
#
DISCID=9509820a
DTITLE=Working Blues Band - Naked
DYEAR=1996
DGENRE=Blues
TTITLE0=I got it good
TTITLE1=You were late last night
TTITLE2=China
TTITLE3=Blue bird
TTITLE4=High water
TTITLE5=Who's been talking
TTITLE6=Guitar of mine
TTITLE7=Hit me
TTITLE8=I hope she's lucky up there
TTITLE9=W.B.B.
EXTD=
EXTT0=
EXTT1=
EXTT2=
EXTT3=
EXTT4=
EXTT5=
EXTT6=
EXTT7=
EXTT8=
EXTT9=
PLAYORDER=
